PathFileType	4	(X/Y/Z)	TVC_32_BWA_07_walk_RCNL2025.trc
DataRate	CameraRate	NumFrames	NumMarkers	Units	OrigDataRate	OrigDataStartFrame	OrigNumFrames
100	100	4	27	mm	100	205	272
Frame#	Time	R_Shoulder			L_Shoulder			C7			J_Notch			R_Elbow			L_Elbow			R_Wrist			L_Wrist			R_Asis			L_Asis			R_Psis			L_Psis			Sacral			Thoracic			Sternum			R_Thigh_Lateral			R_Knee_Lateral			R_Shank_Lateral			R_Ankle_Lateral			R_Heel			R_Toe			L_Thigh_Lateral			L_Knee_Lateral			L_Shank_Lateral			L_Ankle_Lateral			L_Heel			L_Toe		
		X1	Y1	Z1	X2	Y2	Z2	X3	Y3	Z3	X4	Y4	Z4	X5	Y5	Z5	X6	Y6	Z6	X7	Y7	Z7	X8	Y8	Z8	X9	Y9	Z9	X10	Y10	Z10	X11	Y11	Z11	X12	Y12	Z12	X13	Y13	Z13	X14	Y14	Z14	X15	Y15	Z15	X16	Y16	Z16	X17	Y17	Z17	X18	Y18	Z18	X19	Y19	Z19	X20	Y20	Z20	X21	Y21	Z21	X22	Y22	Z22	X23	Y23	Z23	X24	Y24	Z24	X25	Y25	Z25	X26	Y26	Z26	X27	Y27	Z27
205	2.04000000	798.080811	1482.537354	-256.480774	752.270203	1461.686523	-630.565369	730.487671	1532.306519	-439.462677	882.454529	1422.572388	-446.365417	756.777100	1135.332764	-137.227554	731.627136	1134.913330	-743.142883	808.408844	866.807190	-177.506500	865.519562	896.017212	-729.652344	801.658020	1011.026367	-300.928467	762.974548	1036.838623	-579.887634	603.632935	1048.762573	-359.472717	589.268982	1050.357422	-461.608063	596.450958	1049.559998	-410.540390	636.591980	1276.560913	-412.743408	896.048035	1276.185181	-451.957642	721.715332	633.533264	-254.421753	773.563904	503.235840	-319.826538	743.601196	293.865234	-268.855225	763.638855	79.680214	-351.234253	706.026794	52.918819	-413.036774	909.757629	43.222588	-369.979187	734.938904	706.391296	-693.857239	756.747009	527.912415	-666.086365	622.414673	417.091644	-701.925110	477.198425	188.910141	-616.527283	430.804535	220.350281	-554.128540	563.705078	71.078011	-610.110779
206	2.05000000	805.777466	1482.406738	-256.165161	758.269409	1461.647217	-630.147766	737.384766	1532.460693	-438.799561	889.277222	1422.611816	-446.267883	773.239685	1134.578369	-136.358856	730.866394	1134.707397	-741.348877	830.118195	867.175934	-176.438881	859.618500	892.878693	-730.686951	807.804626	1011.221680	-299.588257	770.562683	1036.862427	-578.738464	610.176147	1048.858032	-359.191864	596.251404	1050.369385	-461.390381	603.213776	1049.613708	-410.291122	643.393738	1276.758179	-412.138733	902.778564	1276.215698	-451.489929	725.269775	633.836975	-254.028976	776.450195	503.115204	-319.612915	745.109558	293.965790	-268.861908	763.934204	79.778114	-351.298004	706.025574	52.925243	-413.143433	909.749146	43.162106	-370.068451	747.003174	708.028503	-694.226868	772.798767	530.026733	-667.127686	640.906982	417.027832	-704.336365	501.467743	184.410767	-621.316101	453.908905	213.727829	-558.834900	591.776855	69.704964	-616.180969
207	2.06000000	813.359314	1482.235596	-255.925446	764.242615	1461.594360	-629.789978	744.200195	1532.553833	-438.210114	896.020630	1422.593506	-446.219330	789.661560	1133.993408	-135.678101	730.100769	1134.612427	-739.546814	851.884491	867.834564	-175.472267	853.522095	889.921082	-731.686859	813.897949	1011.410706	-298.364471	778.115234	1036.939697	-577.666260	616.677002	1048.879761	-359.022766	603.203430	1050.335815	-461.275177	609.940216	1049.607788	-410.148972	650.121582	1276.891235	-411.646851	909.439636	1276.189819	-451.075165	729.064880	634.095764	-253.736038	779.485107	502.975555	-319.467133	746.744690	294.103821	-268.952423	764.238525	79.876862	-351.395630	706.090698	52.953186	-413.327728	909.734924	43.096218	-370.147461	758.807922	709.512512	-694.216248	788.645996	532.167480	-667.628479	659.939026	416.552673	-706.687195	527.122253	178.891251	-626.505554	478.167938	205.855347	-564.114380	621.577209	67.798294	-622.282349
208	2.07000000	820.840149	1482.032959	-255.758316	770.194214	1461.532104	-629.484680	750.941345	1532.590942	-437.689392	902.692444	1422.523560	-446.218597	805.993164	1133.594238	-135.175476	729.391602	1134.636597	-737.750732	873.670166	868.811096	-174.613838	847.279785	887.151855	-732.600525	819.964417	1011.587891	-297.273193	785.620544	1037.073608	-576.687378	623.153137	1048.830933	-358.952515	610.128662	1050.252075	-461.248260	616.640900	1049.541504	-410.100388	656.783447	1276.962524	-411.255310	916.038147	1276.113281	-450.715302	733.134949	634.294434	-253.510498	782.676941	502.814087	-319.394379	748.522888	294.262573	-269.123810	764.549011	79.970596	-351.537933	706.216431	53.001045	-413.590271	909.718750	43.033039	-370.217957	770.419800	710.804688	-693.838806	804.328552	534.293396	-667.602722	679.530396	415.711731	-708.944458	554.035217	172.631271	-631.994263	503.512177	197.039062	-569.859619	652.833069	65.583664	-628.331055
